<svg width="40" height="36" viewBox="0 0 40 36" fill="none" xmlns="http://www.w3.org/2000/svg">
<path fill-rule="evenodd" clip-rule="evenodd" d="M39.2112 18.3832C39.2112 17.1086 39.0855 15.8831 38.852 14.7065H20.2483V21.6595H30.879C30.4211 23.9064 29.0294 25.8101 26.9374 27.0846V31.5947H33.3212C37.0563 28.4654 39.2112 23.8573 39.2112 18.3832Z" fill="#4285F4"/>
<path fill-rule="evenodd" clip-rule="evenodd" d="M20.2479 35.9492C25.5813 35.9492 30.0526 34.3397 33.3208 31.5944L26.937 27.0844C25.1682 28.1629 22.9056 28.8002 20.2479 28.8002C15.1032 28.8002 10.7485 25.6382 9.19524 21.3896H2.59595V26.0467C5.84621 31.9212 12.5263 35.9492 20.2479 35.9492Z" fill="#34A853"/>
<path fill-rule="evenodd" clip-rule="evenodd" d="M9.19554 21.3901C8.80048 20.3116 8.57601 19.1596 8.57601 17.9749C8.57601 16.7902 8.80048 15.6382 9.19554 14.5597V9.90259H2.59624C1.25842 12.3292 0.495239 15.0744 0.495239 17.9749C0.495239 20.8754 1.25842 23.6206 2.59624 26.0472L9.19554 21.3901Z" fill="#FBBC05"/>
<path fill-rule="evenodd" clip-rule="evenodd" d="M20.2479 7.14906C23.148 7.14906 25.7518 8.05597 27.799 9.8371L33.4645 4.68161C30.0436 1.78114 25.5723 0 20.2479 0C12.5263 0 5.84621 4.02798 2.59595 9.90247L9.19524 14.5596C10.7485 10.311 15.1032 7.14906 20.2479 7.14906Z" fill="#EA4335"/>
</svg>
