<svg width="32" height="21" viewBox="0 0 32 21" fill="none" xmlns="http://www.w3.org/2000/svg">
<path fill-rule="evenodd" clip-rule="evenodd" d="M0.8704 1.533C1.28 1.06034 1.82118 0.674684 2.44897 0.408059C3.07677 0.141434 3.77306 0.00154071 4.48 0H27.52C29.0176 0 30.3248 0.616875 31.1296 1.533C31.6784 2.16038 32 2.93344 32 3.76294V17.2371C32 19.2701 30.048 21 27.52 21H4.48C1.952 21 0 19.2701 0 17.2371V3.76294C0 2.93344 0.32 2.16037 0.8704 1.53169V1.533ZM4.6928 2.625L14.816 11.7666C14.966 11.9019 15.1488 12.01 15.3526 12.084C15.5565 12.158 15.777 12.1963 16 12.1963C16.223 12.1963 16.4435 12.158 16.6474 12.084C16.8512 12.01 17.034 11.9019 17.184 11.7666L27.3072 2.625H4.6928ZM28.8 5.18175L19.552 13.5319C19.1021 13.9379 18.5537 14.2623 17.9421 14.4843C17.3304 14.7063 16.6689 14.821 16 14.821C15.3311 14.821 14.6696 14.7063 14.0579 14.4843C13.4463 14.2623 12.8979 13.9379 12.448 13.5319L3.2 5.18175V17.2371C3.2 17.9117 3.8272 18.375 4.48 18.375H27.52C28.1728 18.375 28.8 17.9117 28.8 17.2371V5.18175Z" fill="#344054"/>
</svg>
